<svg width="278" height="212" viewBox="0 0 278 212" fill="none" xmlns="http://www.w3.org/2000/svg">
<path fill-rule="evenodd" clip-rule="evenodd" d="M120.303 0.54867C117.975 1.00642 114.467 2.13064 112.506 3.04679C109.375 4.51032 108.582 4.63644 105.981 4.08265C96.8005 2.12872 91.1779 4.86756 85.7824 13.9221C82.2635 19.8281 80.2278 22.0925 74.7413 26.2085C69.6838 30.0017 68.4053 31.7444 67.2789 36.3815C66.2933 40.4385 67.0436 42.58 71.7749 49.2069C76.5674 55.9202 78.601 60.9081 78.1512 64.8492C77.7674 68.2123 78.4948 70.3122 80.3611 71.2341C82.6973 72.3871 85.5956 70.8749 89.2318 66.606L92.6091 62.6411L92.818 65.6181C92.9811 67.9523 92.2842 70.3724 89.5913 76.8219C82.6418 93.4642 81.5451 98.931 81.5215 117.059C81.5118 124.454 81.7548 133.025 82.0608 136.106L82.6175 141.708H77.6258C71.4175 141.708 67.3663 143.398 64.0918 147.354C57.2761 155.587 60.289 166.99 73.5594 183.188C76.9262 187.297 79.5706 190.76 79.4359 190.884C79.302 191.009 75.9643 190.635 72.0192 190.055C68.0742 189.475 61.6924 188.834 57.8363 188.63C42.8037 187.839 23.1176 191.713 9.65846 198.114C0.798851 202.326 -1.61993 205.294 0.995962 208.739C2.24387 210.382 6.31728 211.746 8.27035 211.174C9.11571 210.927 9.66956 211.054 9.66956 211.495C9.66956 212.529 37.5768 211.862 50.9658 210.508C59.5034 209.644 70.1182 209.437 109.96 209.353L158.544 209.25L161.929 207.81C163.791 207.017 165.71 206.369 166.193 206.369C166.677 206.369 168.083 205.499 169.318 204.435C171.327 202.704 171.523 202.225 171.182 199.882C170.578 195.724 166.549 192.355 161.375 191.68L158.654 191.324L163.326 186.203C177.751 170.391 181.874 153.069 173.033 145.423C169.927 142.736 166.479 141.708 160.574 141.708C156.121 141.708 155.337 141.552 155.676 140.736C156.707 138.259 157.538 116.675 156.896 109.057C155.987 98.2761 155.551 95.8203 153.202 88.1966L151.804 83.6619L153.265 81.0198C154.069 79.5665 154.727 77.9346 154.727 77.3936C154.727 75.6586 159.477 71.4883 164.637 68.6924C171.555 64.9446 175.542 61.8511 176.673 59.3549C178.209 55.9637 177.867 50.9688 175.825 46.9559C171.676 38.804 171.199 37.1785 170.751 29.6695C170.082 18.4523 167.557 15.2858 158.05 13.7409C154.812 13.2153 153.62 12.6705 152.129 11.036C146.968 5.37844 142.336 2.7094 135.126 1.23946C128.159 -0.181172 124.812 -0.336746 120.303 0.54867ZM134.599 3.94757C141.037 5.37845 144.492 7.35863 149.254 12.3485C152.244 15.4817 153.357 16.2262 155.055 16.2294C158.368 16.2346 162.139 17.4158 164.368 19.1463C166.803 21.0362 167.914 24.9588 167.914 31.6695C167.914 36.4807 170.235 44.1223 172.909 48.1185C174.652 50.7216 174.949 56.2339 173.483 58.7672C172.892 59.789 169.174 62.5297 164.695 65.2468C155.998 70.5215 152.845 73.5434 151.282 78.0991C150.695 79.8085 149.906 81.2074 149.528 81.2074C147.566 81.2074 145.01 72.8596 145.01 66.4511C145.01 64.1796 144.72 62.321 144.365 62.321C143.176 62.321 141.49 64.3659 141.803 65.4293C141.973 66.0087 142.491 68.067 142.954 70.0036C143.416 71.9402 144.997 76.1573 146.466 79.3751C147.936 82.5928 150.132 88.4988 151.347 92.4995L153.555 99.7736L153.62 116.419C153.663 127.207 153.351 135.385 152.736 139.658C152.214 143.284 151.951 146.402 152.151 146.587C152.352 146.772 153.56 146.411 154.836 145.783C157.977 144.239 164.644 144.26 168.13 145.825C169.585 146.478 171.537 148.046 172.468 149.31C173.904 151.26 174.16 152.363 174.16 156.602C174.16 165.063 169.903 174.245 161.87 183.111C157.003 188.482 152.258 194.705 152.713 195.117C152.866 195.256 154.615 195.073 156.598 194.709C161.089 193.888 162.79 194.281 165.697 196.817C167.461 198.356 167.942 199.256 167.779 200.71C167.594 202.362 167.036 202.805 163.403 204.187C156.884 206.668 143.81 207.228 102.326 206.801C70.1654 206.471 65.4063 206.56 50.2717 207.775C28.543 209.518 9.6647 209.684 6.02577 208.163C4.59464 207.565 3.42307 206.643 3.42307 206.114C3.42307 204.742 7.22163 202.255 13.1898 199.719C32.8135 191.382 54.0099 189.585 78.6912 194.166C82.4877 194.871 85.7123 195.338 85.8559 195.206C86.3952 194.708 83.8369 191.055 76.6347 182.041C72.5557 176.935 68.7378 171.894 68.1506 170.837C67.5627 169.781 66.8867 168.773 66.648 168.597C65.9185 168.059 63.8058 159.879 63.81 157.608C63.8273 147.989 72.6016 142.085 82.1962 145.236C86.2543 146.569 86.9706 145.69 85.8747 140.722C85.3277 138.244 85.0355 130.394 85.0411 118.34L85.0494 99.7736L87.1774 92.4111C88.3476 88.3617 90.5602 82.3117 92.0941 78.9666C95.5435 71.4428 96.4264 67.6732 96.4264 60.4683C96.4264 55.6955 96.2195 54.6647 95.0709 53.7057C93.7598 52.6109 93.7008 52.6339 93.2539 54.4067C92.203 58.5739 84.2374 68.7232 82.0171 68.7232C81.1565 68.7232 81.0413 68.1182 81.3876 65.4209C81.904 61.3991 79.3901 53.7761 76.3717 50.2088C71.7777 44.7798 68.4324 37.3155 70.1543 36.3341C70.4923 36.1414 70.5895 35.7156 70.3695 35.3879C70.1502 35.0601 70.2799 34.7918 70.6589 34.7918C71.0372 34.7918 71.5577 34.1798 71.8145 33.432C72.072 32.6836 73.4205 31.1714 74.8107 30.0709C82.1705 24.2436 84.9495 21.3524 87.9235 16.4247C92.4571 8.91499 94.6829 7.09422 99.7433 6.75683C101.957 6.60894 104.967 6.79268 106.43 7.16593C108.772 7.76196 109.52 7.64225 112.649 6.16847C120.359 2.53846 125.786 1.98915 134.599 3.94757ZM213.886 66.5093C211.029 67.6175 209.153 71.1182 208.271 76.9845C207.885 79.5524 207.47 81.7125 207.349 81.7848C207.227 81.8572 205.723 82.4615 204.005 83.1273C202.287 83.7938 200.014 84.8841 198.954 85.5499L197.027 86.7606L193.643 84.7573C188.888 81.9436 186.33 81.3674 183.473 82.4686C180.805 83.4968 180.005 85.4212 180.737 89.0545C181.212 91.4137 185.02 98.7896 187.479 102.113C188.17 103.048 188.739 104.632 188.744 105.634C188.754 108.029 190.308 113.334 191.751 115.907C193.465 118.963 193.358 130.884 191.576 135.441C190.848 137.304 189.273 141.708 188.077 145.229C186.881 148.75 184.691 154.512 183.211 158.033C178.38 169.524 177.253 178.491 179.408 188.31C181.574 198.18 186.831 205.508 193.783 208.345C196.876 209.607 199.05 209.888 208.516 210.248C214.624 210.48 222.95 211.054 227.018 211.524C236.452 212.612 241.88 211.91 249.363 208.634C259.395 204.243 266.863 195.728 269.601 185.562C270.991 180.4 271.189 169.901 270.016 163.475C269.027 158.054 269.038 150.789 270.041 148.045C270.478 146.849 272.309 143.996 274.109 141.708C275.91 139.419 277.587 136.756 277.838 135.791C278.865 131.826 274.868 127.623 270.071 127.623C265.016 127.623 257.288 135.364 255.052 142.668C254.195 145.464 253.434 151.369 253.276 156.433C253.227 158.009 253.196 158 251.172 155.817C250.043 154.598 249.118 152.947 249.118 152.15C249.118 150.091 246.285 143.412 242.948 137.601C240.774 133.818 240.096 131.919 240.096 129.624C240.096 125.303 238.304 119.482 235.839 115.792C233.985 113.018 233.78 112.271 234.254 110.03C234.554 108.615 234.819 105.007 234.844 102.014C234.887 96.9483 234.692 96.1749 232.02 90.8106C230.442 87.6415 228.506 83.1216 227.719 80.7663C223.983 69.6003 219.044 64.5093 213.886 66.5093ZM218.721 70.4838C220.965 72.6925 222.825 76.1535 224.726 81.6517C225.541 84.0089 227.415 88.4744 228.889 91.575C232.351 98.851 232.823 101.897 231.389 107.708C230.289 112.17 230.298 112.35 231.716 114.674C235.256 120.474 236.168 122.988 236.716 128.451C237.213 133.41 237.654 134.714 240.423 139.4C242.151 142.325 243.566 145.074 243.566 145.509C243.566 145.943 244.684 148.363 246.05 150.885C251.892 161.67 254.398 174.375 252.443 183.284L251.398 188.048L252.973 186.225C256.434 182.22 257.11 177.948 256.886 161.486C256.679 146.429 256.686 146.357 258.514 142.144C260.508 137.55 264.717 132.643 268.008 131.072C272.085 129.128 276.103 132.476 274.234 136.259C273.827 137.084 272.103 139.501 270.404 141.629C266.405 146.64 265.45 151.046 266.487 159.707C268.552 176.96 268.051 183.449 264.038 191.461C259.718 200.086 249.472 207.25 238.869 209.058C235.479 209.637 233.182 209.618 228.458 208.974C225.125 208.519 217.088 207.944 210.598 207.696C200.983 207.328 198.221 207.005 195.676 205.951C186.139 202.004 181.31 191.416 181.996 175.959C182.325 168.551 182.474 167.945 186.143 158.993C193.205 141.764 195.473 134.009 195.92 125.565C196.297 118.444 196.226 117.883 194.507 114.421C193.512 112.416 192.496 109.02 192.248 106.875C191.903 103.875 191.125 101.95 188.883 98.5392C184.895 92.4732 182.958 87.5928 183.897 85.9744C184.882 84.2778 187.338 84.4097 190.393 86.322C196.481 90.1326 196.676 90.1582 201.084 87.7107C203.263 86.5006 206.063 85.3111 207.307 85.0672C210.083 84.5237 210.632 83.5992 211.243 78.4269C211.782 73.8673 212.606 71.494 214.225 69.8448C215.736 68.3038 216.637 68.4319 218.721 70.4838Z" fill="black"/>
</svg>
